<?xml version="1.0" encoding="utf-8"?>
<!-- Generator: Adobe Illustrator 16.0.0, SVG Export Plug-In . SVG Version: 6.00 Build 0)  -->
<!DOCTYPE svg PUBLIC "-//W3C//DTD SVG 1.1//EN" "http://www.w3.org/Graphics/SVG/1.1/DTD/svg11.dtd">
<svg version="1.1" id="Layer_1" xmlns="http://www.w3.org/2000/svg" xmlns:xlink="http://www.w3.org/1999/xlink" x="0px" y="0px"
	 width="185.111px" height="222.557px" viewBox="0 0 185.111 222.557" enable-background="new 0 0 185.111 222.557"
	 xml:space="preserve">
<g>
	<path fill="#20231C" d="M0,87.915v-2.982c10.869,0,13.586-2.744,13.586-7.634V12.525c0-5.606-2.717-7.396-13.586-7.396V2.147h37.47
		v2.982c-12.299,0-14.873,1.79-14.873,7.396v64.773c0,4.891,2.574,7.634,10.583,7.634h14.73c13.729,0,25.74-7.277,33.606-18.967
		l2.718,1.193L73.795,87.915H0z"/>
	<path fill="#20231C" d="M135.486,0l35.324,76.224c2.574,6.561,6.722,8.708,14.301,8.708v2.982h-36.324v-2.982
		c9.439,0,13.729-0.954,13.729-4.652c0-0.954-0.285-2.147-0.857-3.579l-9.296-20.04h-43.046l-7.723,17.297
		c-0.857,2.266-1.43,4.056-1.43,5.487c0,4.294,4.146,5.487,13.585,5.487v2.982H82.573v-2.982c7.866,0,10.726-1.551,15.159-12.406
		l29.89-69.783L135.486,0z M130.338,8.111l-19.591,45.091h40.042L130.338,8.111z"/>
	<path fill="#20231C" d="M5.936,222.557v-2.982c11.584,0,13.586-1.908,13.586-8.828v-63.342c0-5.01-2.002-7.633-13.586-7.633v-2.982
		h74.079l10.297,19.563l-2.146,0.955c-5.862-7.158-16.445-17.535-34.607-17.535H38.542c-6.722,0-10.011,2.623-10.011,7.633v28.51
		h20.88c9.438,0,16.017-1.191,16.017-14.434h3.432V195h-3.432c0-12.166-6.578-15.865-16.16-15.865H28.531v31.611
		c0,6.92,3.289,8.828,14.873,8.828v2.982H5.936z"/>
	<path fill="#20231C" d="M88.65,222.557v-2.982c9.726,0,13.586-2.506,13.586-8.23v-63.939c0-5.486-3.86-7.633-13.586-7.633v-2.982
		h75.08l10.012,20.279l-2.145,1.191c-7.152-7.275-12.872-18.488-35.037-18.488h-14.016c-7.438,0-11.299,2.146-11.299,7.633v28.75
		h21.738c10.011,0,15.445-3.58,15.445-14.912h3.432v33.4h-3.432c0-10.617-5.435-15.268-15.445-15.268h-21.738v31.969
		c0,5.725,3.861,8.23,11.441,8.23h13.443c16.589,0,26.742-5.727,38.184-18.967l2.574,0.953l-9.725,20.996H88.65z"/>
	<g>
		<g>
			<path fill="#20231C" d="M4.85,119.629v-0.684c1.392,0,1.875-0.52,1.875-1.67v-14.637c0-0.82-0.427-1.285-1.875-1.285
				l-0.113-0.383l3.691-1.26v17.564c0,1.15,0.568,1.67,1.988,1.67v0.684H4.85z"/>
			<path fill="#20231C" d="M10.416,119.75H4.85c-0.067,0-0.121-0.054-0.121-0.121v-0.684c0-0.067,0.054-0.121,0.121-0.121
				c1.278,0,1.754-0.42,1.754-1.549v-14.637c0-0.698-0.298-1.164-1.754-1.164c-0.054,0-0.101-0.035-0.116-0.087l-0.113-0.383
				c-0.019-0.063,0.016-0.128,0.077-0.148l3.691-1.26c0.038-0.016,0.078-0.007,0.109,0.016c0.032,0.022,0.051,0.06,0.051,0.099
				v17.564c0,1.1,0.541,1.549,1.867,1.549c0.067,0,0.121,0.054,0.121,0.121v0.684C10.537,119.696,10.483,119.75,10.416,119.75z
				 M4.971,119.508h5.324v-0.442c-1.374-0.03-1.988-0.586-1.988-1.79V99.88l-3.421,1.168l0.055,0.186
				c1.334,0.018,1.905,0.441,1.905,1.405v14.637c0,1.219-0.563,1.759-1.875,1.79V119.508z"/>
		</g>
		<g>
			<path fill="#20231C" d="M15.982,119.629v-0.684c1.307,0,1.874-0.246,1.874-1.341v-8.345c0-0.711-0.312-1.23-1.901-1.23
				l-0.086-0.411l3.691-1.231v11.218c0,1.095,0.426,1.341,1.902,1.341v0.684H15.982z M20.242,100.861
				c0,0.684-0.512,1.367-1.505,1.367c-1.022,0-1.478-0.684-1.478-1.367c0-0.685,0.455-1.369,1.478-1.369
				C19.73,99.492,20.242,100.177,20.242,100.861z"/>
			<path fill="#20231C" d="M21.463,119.75h-5.48c-0.067,0-0.121-0.054-0.121-0.121v-0.684c0-0.067,0.054-0.121,0.121-0.121
				c1.359,0,1.753-0.273,1.753-1.22v-8.345c0-0.537-0.138-1.109-1.78-1.109c-0.058,0-0.106-0.04-0.118-0.097l-0.086-0.411
				c-0.013-0.06,0.021-0.12,0.08-0.14l3.691-1.231c0.037-0.013,0.076-0.006,0.109,0.017c0.031,0.023,0.05,0.06,0.05,0.099v11.218
				c0,0.991,0.333,1.22,1.781,1.22c0.067,0,0.121,0.054,0.121,0.121v0.684C21.584,119.696,21.53,119.75,21.463,119.75z
				 M16.104,119.508h5.238v-0.441c-1.34-0.013-1.902-0.239-1.902-1.462v-11.05l-3.43,1.145l0.044,0.21
				c1.347,0.019,1.924,0.426,1.924,1.351v8.345c0,1.19-0.657,1.446-1.874,1.461V119.508z M18.737,102.35
				c-1.104,0-1.599-0.747-1.599-1.488c0-0.742,0.494-1.49,1.599-1.49c1.067,0,1.626,0.75,1.626,1.49
				C20.363,101.601,19.805,102.35,18.737,102.35z M18.737,99.613c-1.001,0-1.356,0.672-1.356,1.248c0,0.575,0.355,1.246,1.356,1.246
				c0.951,0,1.384-0.646,1.384-1.246S19.688,99.613,18.737,99.613z"/>
		</g>
		<g>
			<path fill="#20231C" d="M26.634,119.629v-0.684c1.276,0,1.873-0.41,1.873-1.588v-14.691c0-1.039-0.597-1.285-1.731-1.285
				l-0.142-0.383l3.577-1.26v14.008l6.048-5.115c0.283-0.246,0.397-0.465,0.397-0.656c0-0.466-0.767-0.739-1.902-0.739v-0.685h5.678
				v0.685c-1.275,0-2.016,0.465-2.924,1.286l-3.577,3.037l4.741,6.183c0.625,0.794,1.42,1.204,2.669,1.204v0.684H35.01v-0.684
				c1.078,0,1.816-0.219,1.816-0.739c0-0.164-0.084-0.355-0.255-0.602l-3.776-5.062l-2.584,2.188v2.626
				c0,1.178,0.567,1.588,1.902,1.588v0.684H26.634z"/>
			<path fill="#20231C" d="M41.341,119.75H35.01c-0.067,0-0.121-0.054-0.121-0.121v-0.684c0-0.067,0.054-0.121,0.121-0.121
				c1.077,0,1.695-0.226,1.695-0.618c0-0.134-0.074-0.304-0.233-0.532l-3.697-4.955l-2.442,2.069v2.569
				c0,1.083,0.466,1.467,1.781,1.467c0.067,0,0.121,0.054,0.121,0.121v0.684c0,0.067-0.054,0.121-0.121,0.121h-5.479
				c-0.067,0-0.121-0.054-0.121-0.121v-0.684c0-0.067,0.054-0.121,0.121-0.121c1.261,0,1.752-0.411,1.752-1.467v-14.691
				c0-0.87-0.406-1.164-1.61-1.164c-0.051,0-0.096-0.031-0.113-0.079l-0.142-0.383c-0.012-0.03-0.01-0.064,0.004-0.094
				s0.038-0.052,0.069-0.063l3.577-1.26c0.035-0.015,0.076-0.007,0.11,0.016c0.032,0.022,0.051,0.06,0.051,0.099v13.747l5.849-4.947
				c0.234-0.204,0.354-0.394,0.354-0.563c0-0.37-0.716-0.618-1.781-0.618c-0.067,0-0.121-0.054-0.121-0.121v-0.685
				c0-0.067,0.054-0.121,0.121-0.121h5.678c0.067,0,0.121,0.054,0.121,0.121v0.685c0,0.067-0.054,0.121-0.121,0.121
				c-1.223,0-1.942,0.441-2.843,1.255l-3.492,2.965l4.671,6.091c0.63,0.8,1.424,1.157,2.573,1.157c0.067,0,0.121,0.054,0.121,0.121
				v0.684C41.462,119.696,41.408,119.75,41.341,119.75z M35.131,119.508h6.089v-0.442c-1.166-0.025-1.985-0.413-2.644-1.249
				l-4.741-6.184c-0.04-0.052-0.032-0.125,0.018-0.167l3.577-3.037c0.912-0.825,1.652-1.285,2.881-1.313v-0.443h-5.436v0.443
				c1.194,0.02,1.902,0.338,1.902,0.859c0,0.243-0.147,0.494-0.439,0.748l-6.049,5.116c-0.036,0.03-0.088,0.035-0.129,0.018
				c-0.043-0.021-0.07-0.063-0.07-0.11V99.909l-3.3,1.162l0.07,0.188c1.064,0.013,1.768,0.269,1.768,1.406v14.691
				c0,1.163-0.562,1.679-1.873,1.708v0.442h5.237v-0.442c-1.35-0.027-1.902-0.528-1.902-1.708v-2.626
				c0-0.035,0.016-0.069,0.043-0.093l2.584-2.188c0.025-0.021,0.061-0.032,0.092-0.027c0.033,0.004,0.063,0.021,0.083,0.048
				l3.776,5.062c0.194,0.278,0.279,0.485,0.279,0.674c0,0.383-0.319,0.836-1.816,0.859V119.508z"/>
		</g>
		<g>
			<path fill="#20231C" d="M48.672,112.762c0,4.761,2.471,6.348,5.196,6.348c2.214,0,3.917-0.876,5.337-2.6l0.398,0.328
				c-1.25,1.779-2.925,3.229-6.134,3.229c-3.946,0-6.614-2.736-6.614-6.867c0-3.803,2.555-6.813,6.472-6.813
				c3.749,0,6.077,2.326,6.077,6.375H48.672z M57.559,111.996c-0.17-3.42-1.703-4.952-4.259-4.952c-2.413,0-4.458,2.106-4.628,4.952
				H57.559z"/>
			<path fill="#20231C" d="M53.47,120.188c-4.028,0-6.735-2.809-6.735-6.988c0-4.018,2.772-6.934,6.593-6.934
				c3.869,0,6.184,2.413,6.198,6.458c0.004,0.012,0.006,0.024,0.006,0.038c0,0.068-0.063,0.121-0.124,0.121
				c-0.001,0-0.002,0-0.003,0h-10.61c0.047,5.309,3.193,6.105,5.074,6.105c2.141,0,3.807-0.813,5.243-2.556
				c0.043-0.052,0.12-0.059,0.171-0.017l0.398,0.328c0.049,0.04,0.059,0.111,0.022,0.163
				C58.563,118.529,56.932,120.188,53.47,120.188z M53.327,106.508c-3.68,0-6.351,2.814-6.351,6.691
				c0,4.035,2.609,6.746,6.493,6.746c3.286,0,4.869-1.544,5.97-3.086l-0.219-0.18c-1.45,1.716-3.202,2.551-5.353,2.551
				c-1.986,0-5.317-0.84-5.317-6.469c0-0.067,0.054-0.121,0.121-0.121h10.61C59.236,108.798,57.018,106.508,53.327,106.508z
				 M57.559,112.117h-8.887c-0.033,0-0.065-0.014-0.088-0.038c-0.023-0.024-0.035-0.057-0.033-0.09
				c0.173-2.889,2.214-5.066,4.749-5.066c2.739,0,4.213,1.705,4.38,5.067c0.002,0.033-0.011,0.065-0.033,0.09
				C57.623,112.104,57.592,112.117,57.559,112.117z M48.802,111.875h8.629c-0.189-3.125-1.579-4.71-4.131-4.71
				C50.933,107.165,49.018,109.181,48.802,111.875z"/>
		</g>
		<g>
			<path fill="#20231C" d="M91.213,118.727c-0.596,0.766-1.164,1.34-2.271,1.34c-1.277,0-1.533-0.902-1.533-1.86
				c-1.192,1.067-2.556,1.86-4.855,1.86c-2.754,0-4.004-1.395-4.004-3.174c0-2.435,2.953-4.295,8.859-5.17v-1.943
				c0-1.641-0.823-2.735-2.526-2.735c-2.157,0-3.011,0.574-3.521,1.97c-0.228,0.602-0.541,1.148-1.25,1.148
				c-0.738,0-1.136-0.438-1.136-1.176c0-1.368,2.328-2.6,6.049-2.6c2.47,0,4.089,1.259,4.089,3.639v7.579
				c0,0.821,0.084,1.478,0.539,1.478c0.369,0,0.766-0.109,1.305-0.629L91.213,118.727z M87.408,112.461
				c-3.805,0.41-6.984,1.915-6.984,4.377c0,1.231,0.965,2.135,2.668,2.135c2.073,0,3.124-0.465,4.316-1.561V112.461z"/>
			<path fill="#20231C" d="M88.941,120.188c-1.419,0-1.621-1.097-1.649-1.719c-1.024,0.877-2.404,1.719-4.739,1.719
				c-2.583,0-4.125-1.231-4.125-3.295c0-2.576,3.063-4.399,8.859-5.274v-1.839c0-1.686-0.854-2.614-2.405-2.614
				c-2.031,0-2.891,0.477-3.406,1.891c-0.23,0.607-0.571,1.228-1.364,1.228c-0.787,0-1.257-0.484-1.257-1.297
				c0-1.576,2.595-2.721,6.17-2.721c2.636,0,4.21,1.405,4.21,3.76v7.579c0,0.938,0.129,1.356,0.418,1.356
				c0.298,0,0.677-0.07,1.221-0.595c0.022-0.022,0.053-0.034,0.084-0.034c0.027-0.012,0.065,0.014,0.089,0.038l0.256,0.273
				c0.04,0.044,0.043,0.11,0.007,0.157C90.74,119.531,90.131,120.188,88.941,120.188z M87.408,118.085
				c0.017,0,0.033,0.003,0.05,0.011c0.043,0.02,0.071,0.063,0.071,0.11c0,1.203,0.436,1.739,1.412,1.739
				c1.04,0,1.583-0.541,2.112-1.212l-0.103-0.109c-0.56,0.508-0.97,0.579-1.299,0.579c-0.58,0-0.66-0.769-0.66-1.599v-7.579
				c0-2.235-1.446-3.518-3.968-3.518c-3.851,0-5.928,1.277-5.928,2.479c0,0.68,0.36,1.055,1.015,1.055
				c0.644,0,0.927-0.515,1.137-1.07c0.552-1.512,1.503-2.048,3.634-2.048c1.683,0,2.647,1.041,2.647,2.856v1.943
				c0,0.061-0.044,0.111-0.104,0.12c-5.646,0.836-8.756,2.63-8.756,5.05c0,1.911,1.451,3.053,3.883,3.053
				c2.4,0,3.713-0.879,4.774-1.829C87.35,118.096,87.379,118.085,87.408,118.085z M83.092,119.094c-1.694,0-2.789-0.886-2.789-2.256
				c0-2.752,3.664-4.128,7.093-4.497c0.031-0.01,0.068,0.007,0.094,0.03c0.025,0.022,0.04,0.056,0.04,0.09v4.951
				c0,0.034-0.014,0.066-0.039,0.089C86.194,118.692,85.085,119.094,83.092,119.094z M87.287,112.597
				c-3.285,0.379-6.742,1.685-6.742,4.241c0,1.224,1,2.014,2.547,2.014c1.902,0,2.968-0.378,4.195-1.493V112.597z"/>
		</g>
		<g>
			<path fill="#20231C" d="M108.995,119.629v-0.684c1.846,0,2.385-0.301,2.385-1.67v-9.657h-2.385v-0.739h2.385v-1.859
				c0-2.545,1.788-5.418,4.544-5.418c1.051,0,1.873,0.356,1.873,1.396c0,0.465-0.567,0.984-1.248,0.984
				c-1.108,0-1.279-0.793-2.301-0.793c-0.738,0-1.164,0.875-1.164,3.091v2.599h3.265v0.739h-3.265v9.657
				c0,1.369,0.568,1.67,2.952,1.67v0.684H108.995z"/>
			<path fill="#20231C" d="M116.036,119.75h-7.041c-0.067,0-0.121-0.054-0.121-0.121v-0.684c0-0.067,0.054-0.121,0.121-0.121
				c1.841,0,2.264-0.29,2.264-1.549v-9.536h-2.264c-0.067,0-0.121-0.054-0.121-0.121v-0.739c0-0.067,0.054-0.121,0.121-0.121h2.264
				v-1.738c0-2.675,1.874-5.539,4.665-5.539c1.305,0,1.994,0.524,1.994,1.518c0,0.512-0.598,1.105-1.369,1.105
				c-0.601,0-0.939-0.218-1.268-0.428c-0.292-0.188-0.568-0.365-1.033-0.365c-0.702,0-1.043,0.972-1.043,2.97v2.478h3.144
				c0.067,0,0.121,0.054,0.121,0.121v0.739c0,0.067-0.054,0.121-0.121,0.121h-3.144v9.536c0,1.2,0.372,1.549,2.831,1.549
				c0.067,0,0.121,0.054,0.121,0.121v0.684C116.157,119.696,116.104,119.75,116.036,119.75z M109.116,119.508h6.799v-0.441
				c-2.212-0.01-2.952-0.286-2.952-1.791v-9.657c0-0.067,0.054-0.121,0.121-0.121h3.144V107h-3.144
				c-0.067,0-0.121-0.054-0.121-0.121v-2.599c0-2.191,0.408-3.212,1.285-3.212c0.536,0,0.855,0.205,1.164,0.403
				c0.313,0.2,0.606,0.39,1.137,0.39c0.624,0,1.127-0.473,1.127-0.863c0-0.847-0.59-1.275-1.752-1.275
				c-2.646,0-4.423,2.739-4.423,5.297v1.859c0,0.067-0.054,0.121-0.121,0.121h-2.264v0.497h2.264c0.067,0,0.121,0.054,0.121,0.121
				v9.657c0,1.507-0.705,1.779-2.385,1.791V119.508z"/>
		</g>
		<g>
			<path fill="#20231C" d="M135.206,118.727c-0.597,0.766-1.165,1.34-2.271,1.34c-1.279,0-1.534-0.902-1.534-1.86
				c-1.192,1.067-2.556,1.86-4.855,1.86c-2.754,0-4.003-1.395-4.003-3.174c0-2.435,2.953-4.295,8.858-5.17v-1.943
				c0-1.641-0.823-2.735-2.526-2.735c-2.158,0-3.011,0.574-3.521,1.97c-0.227,0.602-0.539,1.148-1.249,1.148
				c-0.739,0-1.136-0.438-1.136-1.176c0-1.368,2.328-2.6,6.047-2.6c2.472,0,4.089,1.259,4.089,3.639v7.579
				c0,0.821,0.086,1.478,0.54,1.478c0.369,0,0.767-0.109,1.306-0.629L135.206,118.727z M131.401,112.461
				c-3.805,0.41-6.985,1.915-6.985,4.377c0,1.231,0.966,2.135,2.67,2.135c2.072,0,3.123-0.465,4.315-1.561V112.461z"/>
			<path fill="#20231C" d="M132.936,120.188c-1.42,0-1.622-1.097-1.65-1.719c-1.024,0.877-2.404,1.719-4.739,1.719
				c-2.582,0-4.124-1.231-4.124-3.295c0-2.576,3.063-4.399,8.858-5.274v-1.839c0-1.686-0.854-2.614-2.405-2.614
				c-2.03,0-2.891,0.477-3.407,1.891c-0.229,0.607-0.57,1.228-1.363,1.228c-0.799,0-1.257-0.473-1.257-1.297
				c0-1.576,2.594-2.721,6.168-2.721c2.636,0,4.21,1.405,4.21,3.76v7.579c0,0.938,0.129,1.356,0.419,1.356
				c0.299,0,0.678-0.07,1.222-0.595c0.023-0.023,0.065-0.025,0.087-0.034c0.032,0.001,0.063,0.015,0.086,0.038l0.256,0.273
				c0.04,0.044,0.043,0.11,0.007,0.157C134.732,119.531,134.123,120.188,132.936,120.188z M131.401,118.085
				c0.017,0,0.033,0.003,0.05,0.011c0.043,0.02,0.071,0.063,0.071,0.11c0,1.203,0.436,1.739,1.413,1.739
				c1.038,0,1.581-0.541,2.111-1.212l-0.103-0.109c-0.56,0.508-0.97,0.579-1.3,0.579c-0.581,0-0.661-0.769-0.661-1.599v-7.579
				c0-2.235-1.446-3.518-3.968-3.518c-3.849,0-5.926,1.277-5.926,2.479c0,0.689,0.351,1.055,1.015,1.055
				c0.644,0,0.927-0.515,1.136-1.07c0.554-1.512,1.505-2.048,3.635-2.048c1.683,0,2.647,1.041,2.647,2.856v1.943
				c0,0.06-0.044,0.111-0.104,0.12c-5.646,0.836-8.755,2.63-8.755,5.05c0,1.911,1.451,3.053,3.882,3.053
				c2.4,0,3.713-0.879,4.774-1.829C131.343,118.096,131.372,118.085,131.401,118.085z M127.086,119.094
				c-1.695,0-2.791-0.886-2.791-2.256c0-2.752,3.664-4.128,7.094-4.497c0.032-0.01,0.068,0.007,0.094,0.03
				c0.025,0.022,0.04,0.056,0.04,0.09v4.951c0,0.034-0.014,0.066-0.039,0.089C130.188,118.692,129.078,119.094,127.086,119.094z
				 M131.28,112.597c-3.285,0.379-6.743,1.685-6.743,4.241c0,1.224,1.001,2.014,2.549,2.014c1.901,0,2.967-0.378,4.194-1.493
				V112.597z"/>
		</g>
		<g>
			<path fill="#20231C" d="M140.379,119.629v-0.684c1.305,0,1.873-0.246,1.873-1.341v-8.345c0-0.711-0.313-1.23-1.902-1.23
				l-0.085-0.411l3.69-1.231v11.218c0,1.095,0.426,1.341,1.904,1.341v0.684H140.379z M144.637,100.861
				c0,0.684-0.51,1.367-1.504,1.367c-1.023,0-1.477-0.684-1.477-1.367c0-0.685,0.453-1.369,1.477-1.369
				C144.127,99.492,144.637,100.177,144.637,100.861z"/>
			<path fill="#20231C" d="M145.859,119.75h-5.48c-0.067,0-0.121-0.054-0.121-0.121v-0.684c0-0.067,0.054-0.121,0.121-0.121
				c1.359,0,1.752-0.273,1.752-1.22v-8.345c0-0.537-0.138-1.109-1.781-1.109c-0.058,0-0.107-0.04-0.119-0.097l-0.085-0.411
				c-0.012-0.06,0.022-0.12,0.081-0.14l3.69-1.231c0.037-0.013,0.076-0.006,0.109,0.017c0.031,0.023,0.05,0.06,0.05,0.099v11.218
				c0,0.991,0.333,1.22,1.783,1.22c0.067,0,0.121,0.054,0.121,0.121v0.684C145.98,119.696,145.927,119.75,145.859,119.75z
				 M140.5,119.508h5.238v-0.441c-1.341-0.013-1.904-0.239-1.904-1.462v-11.05l-3.429,1.145l0.043,0.21
				c1.348,0.019,1.925,0.426,1.925,1.351v8.345c0,1.19-0.657,1.446-1.873,1.461V119.508z M143.133,102.35
				c-1.104,0-1.598-0.747-1.598-1.488c0-0.742,0.494-1.49,1.598-1.49c1.066,0,1.625,0.75,1.625,1.49
				C144.758,101.601,144.199,102.35,143.133,102.35z M143.133,99.613c-1,0-1.355,0.672-1.355,1.248c0,0.575,0.355,1.246,1.355,1.246
				c0.95,0,1.383-0.646,1.383-1.246S144.083,99.613,143.133,99.613z"/>
		</g>
		<g>
			<path fill="#20231C" d="M151,119.629v-0.684c1.136,0,1.875-0.355,1.875-1.423v-8.399c0-0.957-0.285-1.258-1.732-1.258
				L151,107.454l3.577-1.341v3.393c1.761-1.449,3.947-3.393,5.821-3.393c0.823,0,1.477,0.656,1.477,1.286s-0.653,1.259-1.477,1.259
				c-0.937,0-1.137-0.738-1.789-0.738c-0.823,0-2.583,1.422-4.032,2.571v7.031c0,1.067,0.427,1.423,1.903,1.423v0.684H151z"/>
			<path fill="#20231C" d="M156.48,119.75H151c-0.067,0-0.121-0.054-0.121-0.121v-0.684c0-0.067,0.054-0.121,0.121-0.121
				c1.213,0,1.754-0.401,1.754-1.302v-8.399c0-0.881-0.212-1.137-1.611-1.137c-0.052,0-0.098-0.032-0.114-0.081l-0.143-0.411
				c-0.021-0.063,0.01-0.131,0.071-0.153l3.577-1.341c0.039-0.014,0.079-0.01,0.112,0.014c0.032,0.022,0.052,0.06,0.052,0.1v3.135
				l0.217-0.179c1.739-1.442,3.711-3.077,5.483-3.077c0.914,0,1.598,0.743,1.598,1.407c0,0.735-0.746,1.38-1.598,1.38
				c-0.551,0-0.864-0.235-1.141-0.443c-0.21-0.158-0.393-0.295-0.648-0.295c-0.751,0-2.439,1.34-3.796,2.417l-0.115,0.092v6.973
				c0,0.9,0.258,1.302,1.782,1.302c0.067,0,0.121,0.054,0.121,0.121v0.684C156.602,119.696,156.548,119.75,156.48,119.75z
				 M151.121,119.508h5.238v-0.442c-1.42-0.021-1.903-0.42-1.903-1.543v-7.031c0-0.037,0.017-0.072,0.046-0.095l0.161-0.128
				c1.458-1.158,3.111-2.47,3.946-2.47c0.337,0,0.569,0.175,0.794,0.344c0.259,0.193,0.525,0.395,0.995,0.395
				c0.775,0,1.355-0.601,1.355-1.138c0-0.55-0.58-1.165-1.355-1.165c-1.686,0-3.705,1.675-5.328,3.021l-0.416,0.344
				c-0.036,0.029-0.086,0.036-0.129,0.016c-0.042-0.02-0.069-0.063-0.069-0.109v-3.218l-3.303,1.238l0.075,0.218
				c1.385,0.012,1.768,0.318,1.768,1.379v8.399c0,1.007-0.613,1.513-1.875,1.543V119.508z"/>
		</g>
		<g>
			<path fill="#20231C" d="M167.218,106.551h5.395v0.685c-1.192,0-1.591,0.137-1.591,0.547c0,0.11,0.029,0.274,0.113,0.466
				l4.033,8.398l3.605-8.125c0.085-0.191,0.113-0.383,0.113-0.547c0-0.493-0.453-0.739-1.703-0.739v-0.685h4.912v0.685
				c-1.447,0-2.044,0.273-2.811,1.942l-5.111,11.408c-1.021,2.49-2.045,2.9-3.691,2.9c-1.477,0-1.988-0.684-1.988-1.395
				c0-0.712,0.483-1.369,1.363-1.369c1.335,0,0.823,1.533,2.044,1.533c0.569,0,1.136-0.876,1.733-2.271l0.566-1.23l-4.969-10.67
				c-0.312-0.521-0.566-0.849-2.015-0.849V106.551z"/>
			<path fill="#20231C" d="M170.482,123.607c-1.957,0-2.109-1.16-2.109-1.516c0-0.74,0.51-1.49,1.484-1.49
				c0.758,0,0.985,0.456,1.187,0.859c0.18,0.361,0.336,0.674,0.857,0.674c0.458,0,0.988-0.719,1.622-2.198l0.544-1.183
				l-4.944-10.619c-0.269-0.447-0.467-0.778-1.905-0.778c-0.067,0-0.121-0.054-0.121-0.121v-0.685c0-0.067,0.054-0.121,0.121-0.121
				h5.395c0.067,0,0.121,0.054,0.121,0.121v0.685c0,0.067-0.054,0.121-0.121,0.121c-1.229,0-1.47,0.156-1.47,0.426
				c0,0.055,0.01,0.205,0.104,0.417l3.918,8.158l3.499-7.885c0.067-0.154,0.103-0.321,0.103-0.498c0-0.306-0.188-0.618-1.582-0.618
				c-0.067,0-0.121-0.054-0.121-0.121v-0.685c0-0.067,0.054-0.121,0.121-0.121h4.912c0.067,0,0.121,0.054,0.121,0.121v0.685
				c0,0.067-0.054,0.121-0.121,0.121c-1.403,0-1.959,0.258-2.7,1.872l-5.111,11.407
				C173.254,123.147,172.195,123.607,170.482,123.607z M169.857,120.844c-0.854,0-1.242,0.647-1.242,1.248
				c0,0.81,0.681,1.273,1.867,1.273c1.64,0,2.594-0.423,3.579-2.825l5.113-11.412c0.77-1.676,1.389-1.997,2.8-2.013v-0.443h-4.67
				v0.443c0.861,0.01,1.703,0.135,1.703,0.859c0,0.211-0.042,0.411-0.124,0.596l-3.605,8.125c-0.019,0.045-0.063,0.07-0.11,0.072
				c-0.047,0-0.089-0.026-0.109-0.068l-4.033-8.398c-0.109-0.249-0.125-0.432-0.125-0.519c0-0.541,0.558-0.659,1.591-0.668v-0.442
				h-5.152v0.443c1.366,0.019,1.669,0.357,1.997,0.906l4.975,10.682c0.016,0.032,0.016,0.069,0.001,0.102l-0.566,1.23
				c-0.693,1.619-1.263,2.342-1.844,2.342c-0.672,0-0.886-0.429-1.075-0.808C170.633,121.18,170.465,120.844,169.857,120.844z"/>
		</g>
	</g>
	<g>
		<rect x="0.936" y="97.07" fill="#20231C" width="182" height="1"/>
		<path fill="#20231C" d="M183.936,98.07h-183v-2h183V98.07z M1.936,97.07h181H1.936z"/>
	</g>
	<g>
		<rect x="0.936" y="128.07" fill="#20231C" width="182" height="1"/>
		<path fill="#20231C" d="M0.936,129.07v-2h183v2 M1.936,128.07h181H1.936z"/>
	</g>
</g>
</svg>
