<?xml version="1.0" encoding="utf-8"?>
<!-- Generator: Adobe Illustrator 16.0.0, SVG Export Plug-In . SVG Version: 6.00 Build 0)  -->
<!DOCTYPE svg PUBLIC "-//W3C//DTD SVG 1.1//EN" "http://www.w3.org/Graphics/SVG/1.1/DTD/svg11.dtd">
<svg version="1.1" id="Layer_1" xmlns="http://www.w3.org/2000/svg" xmlns:xlink="http://www.w3.org/1999/xlink" x="0px" y="0px"
	 width="301px" height="55px" viewBox="0 0 301 55" enable-background="new 0 0 301 55" xml:space="preserve">
<g>
	<path fill="#FFFFFF" d="M12.043,5.993c-0.051-0.037-0.054-0.052-0.117-0.026L5.877,8.042C5.776,8.076,5.736,8.184,5.767,8.287
		l0.194,0.63c0.026,0.086,0.083,0.144,0.171,0.144C8.53,9.061,9,9.828,9,10.978v24.108c0,1.859-0.739,2.551-2.845,2.551
		C6.044,37.637,6,37.726,6,37.836v1.126C6,39.073,6.049,39,6.16,39h9.168C15.439,39,16,39.073,16,38.962v-1.126
		c0-0.11-0.451-0.199-0.562-0.199c-2.185,0-3.438-0.74-3.438-2.551V6.155C12,6.091,12.096,6.03,12.043,5.993z"/>
	<path fill="#FFFFFF" d="M31.712,8.05c0-1.219-0.92-2.454-2.678-2.454c-1.819,0-2.633,1.232-2.633,2.454s0.814,2.452,2.633,2.452
		C30.792,10.502,31.712,9.268,31.712,8.05z"/>
	<path fill="#FFFFFF" d="M24.116,19.22l0.142,0.677c0.019,0.094-0.092,0.159,0.002,0.159c2.705,0,2.74,0.943,2.74,1.827v13.745
		c0,1.559-0.605,2.009-2.844,2.009c-0.111,0-0.156,0.089-0.156,0.199v1.126C24,39.073,24.386,39,24.497,39h9.027
		C33.635,39,34,39.073,34,38.962v-1.126c0-0.11-0.021-0.199-0.133-0.199c-2.386,0-2.867-0.376-2.867-2.009V17.151
		c0-0.064-0.235-0.124-0.287-0.163c-0.055-0.037-0.222-0.048-0.283-0.027l-6.131,2.028C24.203,19.021,24.095,19.121,24.116,19.22z"
		/>
	<path fill="#FFFFFF" d="M42.157,37.637c-0.111,0-0.157,0.089-0.157,0.199v1.126C42,39.073,41.93,39,42.041,39h9.025
		C51.177,39,51,39.073,51,38.962v-1.126c0-0.11-0.022-0.199-0.133-0.199c-2.167,0-2.867-0.632-2.867-2.416v-4.231l4.089-3.409
		l6.123,8.162c0.262,0.376,0.4,0.656,0.4,0.877c0,0.646-0.828,1.018-2.602,1.018c-0.111,0-0.01,0.089-0.01,0.199v1.126
		C56,39.073,55.726,39,55.837,39h10.428C66.375,39,66,39.073,66,38.962v-1.126c0-0.11,0.144-0.199,0.033-0.199
		c-1.894,0-3.085-0.589-4.123-1.906l-7.635-10.032l5.781-4.883c1.483-1.34,2.7-2.067,4.713-2.067c0.111,0,0.23-0.088,0.23-0.199
		v-1.128C65,17.311,64.878,17,64.767,17h-9.352C55.304,17,55,17.311,55,17.421v1.128c0,0.111,0.196,0.199,0.307,0.199
		c1.755,0,2.988,0.409,2.988,1.019c0,0.28-0.236,0.592-0.623,0.928L48,28.843V6.2c0-0.064,0.036-0.125-0.018-0.162
		c-0.056-0.037-0.091-0.05-0.148-0.025l-5.876,2.074c-0.051,0.018-0.083,0.055-0.106,0.104c-0.022,0.048-0.021,0.104-0.002,0.154
		l0.235,0.631c0.029,0.078,0.141,0.13,0.224,0.13c1.983,0,2.69,0.484,2.69,1.917v24.198C45,36.96,44.233,37.637,42.157,37.637z"/>
	<path fill="#FFFFFF" d="M96.021,28c0.1,0,0.205-0.162,0.205-0.273c0-0.023-0.003-0.082-0.01-0.101
		C96.192,20.963,92.38,16.97,86.007,16.97c-6.292,0-10.859,4.795-10.859,11.412c0,6.884,4.458,11.505,11.094,11.505
		c5.702,0,8.39-2.733,10.267-5.405c0.06-0.085,0.043-0.204-0.037-0.27l-0.657-0.541c-0.083-0.068-0.21-0.059-0.281,0.026
		c-2.366,2.871-5.11,4.285-8.636,4.285C83.8,37.982,78.618,37,78.541,28h17.476C96.019,28,96.02,28,96.021,28z M85.962,18.242
		c4.203,0,6.492,2.758,6.804,7.758H78.553C78.909,22,82.063,18.242,85.962,18.242z"/>
	<path fill="#FFFFFF" d="M127.379,34.455c0,3.398,2.525,5.427,6.78,5.427c3.846,0,6.11-1.386,7.798-2.83
		c0.047,1.024,0.377,2.83,2.714,2.83c1.959,0,2.961-1.08,3.897-2.283c0.06-0.077,0.054-0.187-0.013-0.26l-0.422-0.45
		c-0.039-0.04-0.102-0.082-0.146-0.063c-0.052,0-0.102,0.02-0.139,0.057c-0.896,0.863-1.594,0.979-2.085,0.979
		c-0.476,0-0.764-0.688-0.764-2.234V23.145c0-3.878-2.518-6.193-6.859-6.193c-5.889,0-10.125,1.886-10.125,4.481
		c0,1.339,0.793,2.137,2.089,2.137c1.307,0,1.876-1.021,2.256-2.022c0.85-2.329,2.299-3.114,5.645-3.114
		c2.555,0,3.995,1.53,3.995,4.307v3.028C132,27.209,127.379,30.212,127.379,34.455z M142,27.38v7.843
		c-2,1.837-3.805,2.459-6.939,2.459c-2.547,0-4.181-1.301-4.181-3.316C130.88,30.154,137,28.004,142,27.38z"/>
	<path fill="#FFFFFF" d="M177.235,37.637c-0.111,0-0.235,0.089-0.235,0.199v1.126c0,0.111,0.586,0.038,0.697,0.038h11.598
		c0.11,0-0.295,0.073-0.295-0.038v-1.126c0-0.11,0.342-0.199,0.232-0.199c-4.051,0-4.232-0.574-4.232-2.551V19h4.81
		c0.11,0,0.19,0.29,0.19,0.18v-1.218c0-0.111-0.08,0.038-0.19,0.038H185v-4.318c0-3.291,0.377-4.892,1.533-4.892
		c0.766,0,1.129,0.293,1.609,0.602c0.541,0.346,1.053,0.705,2.042,0.705c1.271,0,2.233-0.979,2.233-1.821c0-1.636-1.36-2.5-3.51-2.5
		c-4.597,0-7.908,4.718-7.908,9.124V18h-3.303c-0.111,0-0.697-0.149-0.697-0.038v1.218c0,0.11,0.586-0.18,0.697-0.18H181v16.086
		C181,37.159,180.268,37.637,177.235,37.637z"/>
	<path fill="#FFFFFF" d="M199.611,34.455c0,3.398,2.641,5.427,6.894,5.427c3.846,0,6.168-1.386,7.855-2.83
		c0.047,1.024,0.405,2.83,2.744,2.83c1.956,0,2.972-1.08,3.91-2.283c0.059-0.077,0.062-0.187-0.005-0.26l-0.419-0.45
		c-0.036-0.038-0.087-0.061-0.14-0.063c-0.036,0.015-0.104,0.018-0.143,0.057c-0.896,0.863-1.323,0.979-1.815,0.979
		c-0.478,0-0.493-0.688-0.493-2.234V23.145c0-3.878-2.789-6.193-7.131-6.193c-5.887,0-10.258,1.886-10.258,4.481
		c0,1.357,0.706,2.137,2.021,2.137c1.306,0,1.843-1.021,2.221-2.022c0.852-2.329,2.055-3.114,5.398-3.114
		c2.555,0,3.748,1.53,3.748,4.307v3.028C205,27.209,199.611,30.212,199.611,34.455z M214,27.38v7.843
		c-2,1.837-3.576,2.459-6.707,2.459c-2.549,0-4.299-1.301-4.299-3.316C202.994,30.154,209,28.004,214,27.38z"/>
	<path fill="#FFFFFF" d="M229.005,19.22l0.14,0.677c0.02,0.094-0.036,0.159,0.059,0.159c2.707,0,2.797,0.943,2.797,1.827v13.745
		c0,1.559-0.604,2.009-2.843,2.009c-0.111,0-0.157,0.089-0.157,0.199v1.126c0,0.111,0.278,0.038,0.39,0.038h9.026
		c0.111,0,0.584,0.073,0.584-0.038v-1.126c0-0.11-0.52-0.199-0.631-0.199c-2.389,0-3.369-0.376-3.369-2.009V17.151
		c0-0.064,0.209-0.124,0.158-0.163c-0.055-0.037,0-0.048-0.062-0.027l-6.018,2.028C228.982,19.021,228.985,19.121,229.005,19.22z"/>
	<path fill="#FFFFFF" d="M236.602,8.05c0-1.219-0.92-2.454-2.676-2.454c-1.818,0-2.632,1.232-2.632,2.454s0.813,2.452,2.632,2.452
		C235.682,10.502,236.602,9.268,236.602,8.05z"/>
	<path fill="#FFFFFF" d="M247.154,37.637c-0.109,0-0.154,0.089-0.154,0.199v1.126c0,0.111-0.228,0.038-0.117,0.038h9.027
		c0.111,0,0.09,0.073,0.09-0.038v-1.126c0-0.11-0.021-0.199-0.132-0.199c-2.511,0-2.868-0.661-2.868-2.145V24.008l0.177-0.151
		c2.234-1.773,5.009-3.98,6.247-3.98c0.42,0,0.718,0.226,1.063,0.485c0.455,0.343,0.971,0.73,1.878,0.73
		c1.402,0,2.631-1.062,2.631-2.272c0-1.094-1.127-2.318-2.633-2.318c-2.919,0-6.154,2.693-9.019,5.068L253,21.864v-5.163
		c0-0.066-0.045-0.128-0.098-0.164c-0.055-0.039-0.127-0.046-0.191-0.023l-5.896,2.209c-0.102,0.037-0.153,0.149-0.118,0.253
		l0.233,0.677c0.027,0.08,0.217,0.134,0.302,0.134c2.305,0,2.768,0.421,2.768,1.872v13.834
		C250,36.976,249.152,37.637,247.154,37.637z"/>
	<path fill="#FFFFFF" d="M282.641,18.748c0.111,0,0.359-0.088,0.359-0.199v-1.128c0-0.11-0.408-0.421-0.52-0.421h-8.885
		c-0.111,0-0.596,0.311-0.596,0.421v1.128c0,0.111,0.286,0.199,0.397,0.199c2.369,0,2.794,0.546,3.237,1.282l8.192,17.491
		l-0.87,1.947c-1.044,2.438-1.905,3.621-2.66,3.621c-0.858,0-1.109-0.515-1.405-1.11c-0.331-0.664-0.703-1.415-1.951-1.415
		c-1.605,0-2.444,1.235-2.444,2.454c0,0.586,0.252,2.497,3.476,2.497c2.821,0,4.565-0.758,6.263-4.896l8.419-18.788
		c1.221-2.659,1.985-3.084,4.297-3.084c0.111,0,0.05-0.088,0.05-0.199v-1.128c0-0.11,0.212-0.421,0.101-0.421h-8.091
		c-0.11,0-0.01,0.311-0.01,0.421v1.128c0,0.111-0.006,0.199,0.104,0.199c2.296,0,2.56,0.515,2.56,1.019
		c0,0.291-0.083,0.566-0.193,0.82l-5.775,12.987l-6.459-13.438c-0.154-0.35-0.094-0.597-0.094-0.688
		C280.143,19.006,280.615,18.748,282.641,18.748z"/>
	<polygon fill="#FFFFFF" points="0,0 0,2 0,3 299,3 301,3 301,0 	"/>
	<polygon fill="#FFFFFF" points="0,54 0,55 299,55 301,55 301,52 0,52 	"/>
</g>
</svg>
