<?xml version="1.0" encoding="utf-8"?>
<!-- Generator: Adobe Illustrator 16.0.0, SVG Export Plug-In . SVG Version: 6.00 Build 0)  -->
<!DOCTYPE svg PUBLIC "-//W3C//DTD SVG 1.1//EN" "http://www.w3.org/Graphics/SVG/1.1/DTD/svg11.dtd">
<svg version="1.1" id="Layer_1" xmlns="http://www.w3.org/2000/svg" xmlns:xlink="http://www.w3.org/1999/xlink" x="0px" y="0px"
	 width="301px" height="55px" viewBox="0 0 301 55" enable-background="new 0 0 301 55" xml:space="preserve">
<g>
	<g>
		<g>
			<path fill="#20231C" d="M6.16,38.962v-1.126c2.292,0,3.088-0.855,3.088-2.75V10.978c0-1.351-0.703-2.116-3.088-2.116L5.974,8.23
				l6.08-2.075v28.931c0,1.895,0.936,2.75,3.275,2.75v1.126H6.16z"/>
			<path fill="#20231C" d="M15.329,39.162H6.16c-0.111,0-0.199-0.089-0.199-0.2v-1.126c0-0.11,0.088-0.199,0.199-0.199
				c2.105,0,2.889-0.691,2.889-2.551V10.978c0-1.149-0.49-1.917-2.889-1.917c-0.088,0-0.166-0.058-0.191-0.144l-0.187-0.63
				C5.751,8.184,5.808,8.076,5.909,8.042l6.08-2.075c0.063-0.025,0.129-0.011,0.18,0.026c0.053,0.037,0.083,0.098,0.083,0.162
				v28.931c0,1.811,0.891,2.551,3.076,2.551c0.111,0,0.199,0.089,0.199,0.199v1.126C15.528,39.073,15.439,39.162,15.329,39.162z
				 M6.359,38.763h8.77v-0.729c-2.263-0.05-3.275-0.965-3.275-2.948V6.434L6.22,8.357l0.09,0.306
				c2.197,0.029,3.138,0.728,3.138,2.314v24.108c0,2.007-0.926,2.896-3.088,2.948V38.763z"/>
		</g>
		<g>
			<path fill="#20231C" d="M24.497,38.962v-1.126c2.152,0,3.086-0.405,3.086-2.208V21.883c0-1.171-0.513-2.026-3.131-2.026
				l-0.142-0.677l6.08-2.028v18.477c0,1.803,0.701,2.208,3.133,2.208v1.126H24.497z M31.513,8.05c0,1.126-0.843,2.252-2.479,2.252
				c-1.684,0-2.434-1.126-2.434-2.252c0-1.127,0.75-2.255,2.434-2.255C30.67,5.795,31.513,6.923,31.513,8.05z"/>
			<path fill="#20231C" d="M33.524,39.162h-9.027c-0.111,0-0.2-0.089-0.2-0.2v-1.126c0-0.11,0.088-0.199,0.2-0.199
				c2.239,0,2.887-0.45,2.887-2.009V21.883c0-0.884-0.227-1.827-2.932-1.827c-0.095,0-0.176-0.065-0.195-0.159l-0.142-0.677
				c-0.021-0.099,0.036-0.198,0.132-0.23l6.08-2.028c0.061-0.021,0.125-0.01,0.18,0.027c0.052,0.039,0.082,0.099,0.082,0.163v18.477
				c0,1.633,0.548,2.009,2.934,2.009c0.111,0,0.199,0.089,0.199,0.199v1.126C33.723,39.073,33.635,39.162,33.524,39.162z
				 M24.696,38.763h8.628v-0.727c-2.207-0.021-3.133-0.395-3.133-2.408v-18.2l-5.649,1.885l0.072,0.347
				c2.218,0.03,3.169,0.701,3.169,2.224v13.745c0,1.961-1.083,2.382-3.087,2.406V38.763z M29.035,10.502
				c-1.819,0-2.633-1.23-2.633-2.452s0.814-2.454,2.633-2.454c1.758,0,2.678,1.235,2.678,2.454
				C31.712,9.268,30.792,10.502,29.035,10.502z M29.035,5.994c-1.649,0-2.234,1.107-2.234,2.056s0.585,2.053,2.234,2.053
				c1.566,0,2.279-1.063,2.279-2.053S30.601,5.994,29.035,5.994z"/>
		</g>
		<g>
			<path fill="#20231C" d="M42.041,38.962v-1.126c2.103,0,3.085-0.675,3.085-2.615V11.022c0-1.711-0.983-2.116-2.852-2.116
				l-0.233-0.631L47.933,6.2v23.072l9.961-8.425c0.466-0.405,0.655-0.766,0.655-1.081c0-0.768-1.263-1.218-3.134-1.218v-1.128h9.352
				v1.128c-2.101,0-3.32,0.766-4.816,2.118L54.06,25.67l7.809,10.183c1.029,1.309,2.338,1.983,4.396,1.983v1.126H55.837v-1.126
				c1.775,0,2.992-0.36,2.992-1.217c0-0.271-0.138-0.586-0.42-0.991l-6.22-8.337l-4.256,3.604v4.325c0,1.94,0.935,2.615,3.133,2.615
				v1.126H42.041z"/>
			<path fill="#20231C" d="M66.265,39.162H55.837c-0.111,0-0.2-0.089-0.2-0.2v-1.126c0-0.11,0.088-0.199,0.2-0.199
				c1.774,0,2.792-0.371,2.792-1.018c0-0.221-0.122-0.501-0.384-0.877l-6.09-8.162l-4.023,3.409v4.231
				c0,1.784,0.768,2.416,2.934,2.416c0.111,0,0.2,0.089,0.2,0.199v1.126c0,0.111-0.089,0.2-0.2,0.2h-9.025
				c-0.111,0-0.199-0.089-0.199-0.2v-1.126c0-0.11,0.088-0.199,0.199-0.199c2.077,0,2.886-0.677,2.886-2.416V11.022
				c0-1.433-0.669-1.917-2.652-1.917c-0.083,0-0.158-0.052-0.187-0.13l-0.233-0.631c-0.019-0.05-0.016-0.106,0.006-0.154
				c0.022-0.049,0.063-0.086,0.114-0.104l5.892-2.074c0.058-0.024,0.125-0.012,0.182,0.025c0.053,0.037,0.083,0.098,0.083,0.162
				v22.643l9.633-8.148c0.386-0.336,0.584-0.647,0.584-0.928c0-0.609-1.179-1.019-2.934-1.019c-0.111,0-0.199-0.088-0.199-0.199
				v-1.128c0-0.11,0.088-0.199,0.199-0.199h9.352c0.111,0,0.199,0.089,0.199,0.199v1.128c0,0.111-0.088,0.199-0.199,0.199
				c-2.014,0-3.199,0.728-4.682,2.067l-5.752,4.883l7.693,10.032c1.037,1.317,2.345,1.906,4.238,1.906
				c0.111,0,0.199,0.089,0.199,0.199v1.126C66.464,39.073,66.375,39.162,66.265,39.162z M56.036,38.763h10.029v-0.729
				c-1.92-0.042-3.27-0.681-4.354-2.058l-7.809-10.185c-0.066-0.085-0.053-0.206,0.029-0.275l5.892-5.002
				c1.502-1.359,2.721-2.117,4.745-2.164v-0.729h-8.953v0.729c1.967,0.032,3.133,0.557,3.133,1.416c0,0.4-0.243,0.813-0.724,1.232
				l-9.963,8.427c-0.06,0.05-0.145,0.058-0.212,0.028c-0.071-0.033-0.116-0.104-0.116-0.182V6.482l-5.436,1.914l0.116,0.311
				c1.753,0.021,2.911,0.441,2.911,2.315v24.198c0,1.916-0.925,2.766-3.085,2.813v0.729h8.626v-0.729
				c-2.223-0.045-3.133-0.87-3.133-2.813v-4.325c0-0.058,0.025-0.114,0.07-0.152l4.256-3.604c0.042-0.036,0.1-0.054,0.151-0.046
				c0.055,0.007,0.105,0.034,0.137,0.079l6.22,8.337c0.32,0.458,0.46,0.8,0.46,1.11c0,0.63-0.526,1.376-2.992,1.415V38.763z"/>
		</g>
		<g>
			<path fill="#20231C" d="M78.339,27.651c0,7.841,4.07,10.455,8.559,10.455c3.646,0,6.452-1.442,8.79-4.282l0.656,0.541
				c-2.059,2.931-4.817,5.317-10.103,5.317c-6.5,0-10.895-4.507-10.895-11.311c0-6.264,4.208-11.221,10.66-11.221
				c6.175,0,10.009,3.831,10.009,10.5H78.339z M92.977,26.391c-0.28-5.633-2.805-8.157-7.015-8.157c-3.975,0-7.343,3.47-7.623,8.157
				H92.977z"/>
			<path fill="#20231C" d="M86.242,39.882c-6.635,0-11.094-4.626-11.094-11.51c0-6.617,4.566-11.421,10.859-11.421
				c6.373,0,10.185,3.975,10.209,10.638c0.006,0.019,0.01,0.04,0.01,0.063c0,0.112-0.105,0.199-0.205,0.199
				c-0.001,0-0.003,0-0.005,0H78.541c0.077,8.744,5.26,10.057,8.358,10.057c3.525,0,6.27-1.339,8.636-4.21
				c0.071-0.085,0.198-0.096,0.281-0.027l0.657,0.541c0.08,0.065,0.096,0.184,0.037,0.269
				C94.632,37.151,91.944,39.882,86.242,39.882z M86.007,17.351c-6.061,0-10.46,4.636-10.46,11.021
				c0,6.646,4.298,11.111,10.695,11.111c5.412,0,8.02-2.543,9.833-5.083l-0.36-0.296c-2.389,2.826-5.274,4.201-8.816,4.201
				c-3.272,0-8.758-1.383-8.758-10.654c0-0.111,0.088-0.199,0.199-0.199h17.476C95.74,21.122,92.085,17.351,86.007,17.351z
				 M92.977,26.59H78.339c-0.055,0-0.108-0.022-0.145-0.063c-0.039-0.041-0.058-0.094-0.055-0.148
				c0.285-4.758,3.646-8.345,7.822-8.345c4.512,0,6.939,2.809,7.214,8.347c0.003,0.055-0.018,0.107-0.055,0.147
				C93.083,26.567,93.031,26.59,92.977,26.59z M78.553,26.19h14.213c-0.312-5.146-2.601-7.758-6.804-7.758
				C82.063,18.433,78.909,21.753,78.553,26.19z"/>
		</g>
		<g>
			<path fill="#20231C" d="M148.408,37.476c-0.98,1.262-1.917,2.207-3.741,2.207c-2.104,0-2.525-1.486-2.525-3.063
				c-1.964,1.758-4.209,3.063-7.997,3.063c-4.536,0-6.595-2.297-6.595-5.228c0-4.01,4.864-7.074,14.592-8.516v-3.2
				c0-2.702-1.355-4.506-4.161-4.506c-3.553,0-4.959,0.946-5.799,3.244c-0.374,0.991-0.891,1.892-2.059,1.892
				c-1.216,0-1.87-0.721-1.87-1.937c0-2.253,3.834-4.281,9.963-4.281c4.067,0,6.734,2.073,6.734,5.993v12.483
				c0,1.353,0.139,2.434,0.888,2.434c0.608,0,1.262-0.181,2.149-1.036L148.408,37.476z M142.142,27.156
				c-6.267,0.675-11.504,3.154-11.504,7.209c0,2.028,1.589,3.516,4.395,3.516c3.415,0,5.146-0.766,7.109-2.57V27.156z"/>
			<path fill="#20231C" d="M144.667,39.882c-2.337,0-2.67-1.806-2.717-2.83c-1.688,1.444-3.96,2.83-7.806,2.83
				c-4.255,0-6.794-2.028-6.794-5.427c0-4.243,5.045-7.246,14.592-8.688v-3.028c0-2.776-1.407-4.307-3.962-4.307
				c-3.346,0-4.761,0.785-5.61,3.114c-0.38,1.001-0.94,2.022-2.247,2.022c-1.296,0-2.07-0.798-2.07-2.137
				c0-2.596,4.274-4.481,10.163-4.481c4.341,0,6.934,2.315,6.934,6.193v12.483c0,1.546,0.213,2.234,0.688,2.234
				c0.491,0,1.115-0.116,2.011-0.979c0.037-0.037,0.087-0.057,0.139-0.057c0.045-0.02,0.107,0.022,0.146,0.063l0.421,0.45
				c0.066,0.073,0.071,0.183,0.012,0.26C147.63,38.802,146.626,39.882,144.667,39.882z M142.142,36.419
				c0.027,0,0.055,0.005,0.082,0.018c0.071,0.032,0.117,0.104,0.117,0.183c0,1.981,0.718,2.864,2.326,2.864
				c1.713,0,2.607-0.892,3.479-1.996l-0.169-0.181c-0.922,0.837-1.598,0.954-2.14,0.954c-0.955,0-1.087-1.266-1.087-2.633V23.145
				c0-3.682-2.383-5.794-6.535-5.794c-6.343,0-9.764,2.104-9.764,4.082c0,1.12,0.594,1.737,1.671,1.737
				c1.061,0,1.526-0.848,1.872-1.763c0.909-2.49,2.476-3.373,5.985-3.373c2.771,0,4.36,1.715,4.36,4.705v3.2
				c0,0.101-0.072,0.184-0.17,0.198c-9.301,1.377-14.422,4.332-14.422,8.317c0,3.148,2.391,5.028,6.396,5.028
				c3.953,0,6.115-1.447,7.863-3.013C142.045,36.437,142.094,36.419,142.142,36.419z M135.032,38.081
				c-2.791,0-4.594-1.459-4.594-3.716c0-4.533,6.035-6.799,11.683-7.407c0.051-0.016,0.112,0.012,0.154,0.05
				c0.042,0.037,0.065,0.092,0.065,0.148v8.154c0,0.057-0.022,0.109-0.063,0.146C140.143,37.42,138.315,38.081,135.032,38.081z
				 M141.942,27.38c-5.411,0.624-11.105,2.774-11.105,6.985c0,2.016,1.647,3.316,4.195,3.316c3.134,0,4.889-0.622,6.91-2.459V27.38z
				"/>
		</g>
		<g>
			<path fill="#20231C" d="M177.697,38.962v-1.126c3.04,0,3.928-0.495,3.928-2.75V19.18h-3.928v-1.218h3.928v-3.063
				c0-4.192,2.945-8.924,7.484-8.924c1.731,0,3.085,0.587,3.085,2.3c0,0.766-0.935,1.621-2.056,1.621
				c-1.825,0-2.106-1.306-3.789-1.306c-1.216,0-1.918,1.441-1.918,5.091v4.28h5.378v1.218h-5.378v15.906
				c0,2.255,0.937,2.75,4.863,2.75v1.126H177.697z"/>
			<path fill="#20231C" d="M189.295,39.162h-11.598c-0.111,0-0.199-0.089-0.199-0.2v-1.126c0-0.11,0.088-0.199,0.199-0.199
				c3.032,0,3.729-0.478,3.729-2.551V19.379h-3.729c-0.111,0-0.199-0.089-0.199-0.199v-1.218c0-0.111,0.088-0.199,0.199-0.199h3.729
				v-2.863c0-4.406,3.087-9.124,7.684-9.124c2.149,0,3.285,0.864,3.285,2.5c0,0.843-0.984,1.821-2.256,1.821
				c-0.989,0-1.547-0.359-2.088-0.705c-0.48-0.309-0.936-0.602-1.701-0.602c-1.156,0-1.718,1.601-1.718,4.892v4.081h5.178
				c0.11,0,0.199,0.088,0.199,0.199v1.218c0,0.11-0.089,0.199-0.199,0.199h-5.178v15.707c0,1.977,0.612,2.551,4.663,2.551
				c0.11,0,0.199,0.089,0.199,0.199v1.126C189.494,39.073,189.405,39.162,189.295,39.162z M177.896,38.763h11.198v-0.727
				c-3.643-0.017-4.862-0.472-4.862-2.95V19.18c0-0.111,0.089-0.2,0.199-0.2h5.178v-0.818h-5.178c-0.11,0-0.199-0.089-0.199-0.199
				v-4.28c0-3.609,0.673-5.29,2.117-5.29c0.883,0,1.409,0.338,1.917,0.664c0.515,0.33,0.999,0.642,1.872,0.642
				c1.028,0,1.856-0.778,1.856-1.422c0-1.395-0.972-2.101-2.886-2.101c-4.357,0-7.284,4.512-7.284,8.725v3.063
				c0,0.11-0.089,0.199-0.2,0.199h-3.729v0.818h3.729c0.111,0,0.2,0.089,0.2,0.2v15.906c0,2.481-1.162,2.931-3.929,2.95V38.763z"/>
		</g>
		<g>
			<path fill="#20231C" d="M220.869,37.476c-0.982,1.262-1.919,2.207-3.739,2.207c-2.107,0-2.527-1.486-2.527-3.063
				c-1.964,1.758-4.209,3.063-7.997,3.063c-4.536,0-6.594-2.297-6.594-5.228c0-4.01,4.864-7.074,14.591-8.516v-3.2
				c0-2.702-1.356-4.506-4.161-4.506c-3.555,0-4.959,0.946-5.8,3.244c-0.374,0.991-0.889,1.892-2.058,1.892
				c-1.218,0-1.871-0.721-1.871-1.937c0-2.253,3.835-4.281,9.96-4.281c4.071,0,6.735,2.073,6.735,5.993v12.483
				c0,1.353,0.141,2.434,0.889,2.434c0.608,0,1.263-0.181,2.151-1.036L220.869,37.476z M214.603,27.156
				c-6.267,0.675-11.506,3.154-11.506,7.209c0,2.028,1.591,3.516,4.397,3.516c3.414,0,5.145-0.766,7.108-2.57V27.156z"/>
			<path fill="#20231C" d="M217.13,39.882c-2.339,0-2.672-1.806-2.719-2.83c-1.688,1.444-3.96,2.83-7.806,2.83
				c-4.253,0-6.793-2.028-6.793-5.427c0-4.243,5.044-7.246,14.591-8.688v-3.028c0-2.776-1.407-4.307-3.962-4.307
				c-3.344,0-4.761,0.785-5.612,3.114c-0.378,1.001-0.939,2.022-2.245,2.022c-1.315,0-2.07-0.779-2.07-2.137
				c0-2.596,4.272-4.481,10.159-4.481c4.342,0,6.935,2.315,6.935,6.193v12.483c0,1.546,0.212,2.234,0.689,2.234
				c0.492,0,1.117-0.116,2.013-0.979c0.038-0.039,0.107-0.042,0.144-0.057c0.053,0.002,0.104,0.024,0.141,0.063l0.422,0.45
				c0.066,0.073,0.07,0.183,0.012,0.26C220.089,38.802,219.086,39.882,217.13,39.882z M214.603,36.419
				c0.027,0,0.055,0.005,0.082,0.018c0.071,0.032,0.117,0.104,0.117,0.183c0,1.981,0.718,2.864,2.328,2.864
				c1.71,0,2.604-0.892,3.478-1.996l-0.169-0.181c-0.922,0.837-1.598,0.954-2.142,0.954c-0.957,0-1.089-1.266-1.089-2.633V23.145
				c0-3.682-2.382-5.794-6.535-5.794c-6.339,0-9.76,2.104-9.76,4.082c0,1.136,0.577,1.737,1.671,1.737
				c1.06,0,1.526-0.848,1.871-1.763c0.911-2.49,2.479-3.373,5.986-3.373c2.771,0,4.36,1.715,4.36,4.705v3.2
				c0,0.099-0.072,0.184-0.17,0.198c-9.299,1.377-14.421,4.332-14.421,8.317c0,3.148,2.391,5.028,6.395,5.028
				c3.953,0,6.115-1.447,7.863-3.013C214.506,36.437,214.555,36.419,214.603,36.419z M207.494,38.081
				c-2.792,0-4.597-1.459-4.597-3.716c0-4.533,6.035-6.799,11.685-7.407c0.053-0.016,0.112,0.012,0.154,0.05
				c0.042,0.037,0.065,0.092,0.065,0.148v8.154c0,0.057-0.022,0.109-0.064,0.146C212.604,37.42,210.776,38.081,207.494,38.081z
				 M214.403,27.38c-5.411,0.624-11.106,2.774-11.106,6.985c0,2.016,1.648,3.316,4.197,3.316c3.132,0,4.887-0.622,6.909-2.459V27.38
				z"/>
		</g>
		<g>
			<path fill="#20231C" d="M229.39,38.962v-1.126c2.148,0,3.085-0.405,3.085-2.208V21.883c0-1.171-0.515-2.026-3.134-2.026
				l-0.14-0.677l6.078-2.028v18.477c0,1.803,0.701,2.208,3.137,2.208v1.126H229.39z M236.402,8.05c0,1.126-0.84,2.252-2.477,2.252
				c-1.687,0-2.433-1.126-2.433-2.252c0-1.127,0.746-2.255,2.433-2.255C235.563,5.795,236.402,6.923,236.402,8.05z"/>
			<path fill="#20231C" d="M238.416,39.162h-9.026c-0.111,0-0.2-0.089-0.2-0.2v-1.126c0-0.11,0.089-0.199,0.2-0.199
				c2.239,0,2.886-0.45,2.886-2.009V21.883c0-0.884-0.228-1.827-2.935-1.827c-0.095,0-0.177-0.065-0.196-0.159l-0.14-0.677
				c-0.02-0.099,0.037-0.198,0.134-0.23l6.078-2.028c0.062-0.021,0.126-0.01,0.181,0.027c0.051,0.039,0.082,0.099,0.082,0.163
				v18.477c0,1.633,0.548,2.009,2.937,2.009c0.111,0,0.199,0.089,0.199,0.199v1.126C238.615,39.073,238.527,39.162,238.416,39.162z
				 M229.589,38.763h8.628v-0.727c-2.208-0.021-3.137-0.395-3.137-2.408v-18.2l-5.647,1.885l0.071,0.347
				c2.22,0.03,3.17,0.701,3.17,2.224v13.745c0,1.961-1.082,2.382-3.085,2.406V38.763z M233.926,10.502
				c-1.818,0-2.632-1.23-2.632-2.452s0.813-2.454,2.632-2.454c1.756,0,2.676,1.235,2.676,2.454
				C236.602,9.268,235.682,10.502,233.926,10.502z M233.926,5.994c-1.647,0-2.233,1.107-2.233,2.056s0.586,2.053,2.233,2.053
				c1.564,0,2.277-1.063,2.277-2.053S235.49,5.994,233.926,5.994z"/>
		</g>
		<g>
			<path fill="#20231C" d="M246.883,38.962v-1.126c1.871,0,3.089-0.585,3.089-2.344V21.658c0-1.576-0.47-2.072-2.854-2.072
				l-0.235-0.677l5.893-2.208v5.588c2.9-2.388,6.501-5.588,9.588-5.588c1.356,0,2.433,1.08,2.433,2.118
				c0,1.037-1.076,2.073-2.433,2.073c-1.542,0-1.872-1.216-2.946-1.216c-1.356,0-4.255,2.342-6.642,4.234v11.581
				c0,1.759,0.703,2.344,3.135,2.344v1.126H246.883z"/>
			<path fill="#20231C" d="M255.91,39.162h-9.027c-0.11,0-0.199-0.089-0.199-0.2v-1.126c0-0.11,0.089-0.199,0.199-0.199
				c1.998,0,2.89-0.661,2.89-2.145V21.658c0-1.451-0.35-1.872-2.654-1.872c-0.085,0-0.161-0.054-0.188-0.134l-0.234-0.677
				c-0.035-0.104,0.016-0.216,0.117-0.253l5.892-2.209c0.064-0.022,0.131-0.016,0.186,0.023c0.053,0.036,0.085,0.098,0.085,0.164
				v5.163l0.357-0.295c2.864-2.375,6.112-5.068,9.031-5.068c1.506,0,2.632,1.225,2.632,2.318c0,1.211-1.229,2.272-2.632,2.272
				c-0.907,0-1.424-0.388-1.879-0.73c-0.346-0.26-0.646-0.485-1.067-0.485c-1.237,0-4.019,2.207-6.253,3.98l-0.189,0.151v11.484
				c0,1.483,0.425,2.145,2.936,2.145c0.111,0,0.199,0.089,0.199,0.199v1.126C256.109,39.073,256.021,39.162,255.91,39.162z
				 M247.083,38.763h8.628v-0.729c-2.339-0.034-3.135-0.691-3.135-2.542V23.911c0-0.061,0.027-0.118,0.075-0.155l0.266-0.211
				c2.401-1.908,5.124-4.068,6.5-4.068c0.555,0,0.938,0.288,1.308,0.566c0.426,0.318,0.865,0.65,1.639,0.65
				c1.277,0,2.232-0.989,2.232-1.874c0-0.906-0.955-1.919-2.232-1.919c-2.776,0-6.103,2.759-8.775,4.977l-0.686,0.566
				c-0.06,0.048-0.142,0.06-0.213,0.025c-0.068-0.032-0.113-0.103-0.113-0.18v-5.301l-5.44,2.04l0.124,0.358
				c2.281,0.02,2.911,0.524,2.911,2.271v13.834c0,1.659-1.01,2.492-3.088,2.542V38.763z"/>
		</g>
		<g>
			<path fill="#20231C" d="M273.596,17.421h8.885v1.128c-1.964,0-2.62,0.226-2.62,0.9c0,0.183,0.049,0.452,0.187,0.768l6.644,13.833
				l5.938-13.383c0.14-0.315,0.187-0.63,0.187-0.9c0-0.813-0.746-1.218-2.806-1.218v-1.128h8.091v1.128
				c-2.384,0-3.366,0.45-4.629,3.199l-8.419,18.79c-1.683,4.103-3.368,4.777-6.08,4.777c-2.432,0-3.275-1.126-3.275-2.297
				c0-1.173,0.797-2.255,2.246-2.255c2.198,0,1.355,2.525,3.366,2.525c0.938,0,1.871-1.443,2.855-3.741l0.933-2.026l-8.184-17.575
				c-0.514-0.857-0.934-1.397-3.318-1.397V17.421z"/>
			<path fill="#20231C" d="M278.973,45.516c-3.224,0-3.475-1.911-3.475-2.497c0-1.219,0.84-2.454,2.445-2.454
				c1.248,0,1.623,0.751,1.954,1.415c0.296,0.596,0.554,1.11,1.412,1.11c0.755,0,1.628-1.184,2.672-3.621l0.896-1.947l-8.144-17.491
				c-0.442-0.736-0.769-1.282-3.138-1.282c-0.111,0-0.199-0.088-0.199-0.199v-1.128c0-0.11,0.088-0.199,0.199-0.199h8.885
				c0.111,0,0.2,0.089,0.2,0.199v1.128c0,0.111-0.089,0.199-0.2,0.199c-2.024,0-2.421,0.258-2.421,0.701
				c0,0.091,0.017,0.338,0.171,0.688l6.453,13.438l5.764-12.987c0.11-0.254,0.169-0.529,0.169-0.82c0-0.504-0.311-1.019-2.606-1.019
				c-0.11,0-0.199-0.088-0.199-0.199v-1.128c0-0.11,0.089-0.199,0.199-0.199h8.091c0.111,0,0.199,0.089,0.199,0.199v1.128
				c0,0.111-0.088,0.199-0.199,0.199c-2.312,0-3.227,0.425-4.447,3.084l-8.419,18.788C283.537,44.758,281.794,45.516,278.973,45.516
				z M277.943,40.963c-1.406,0-2.046,1.066-2.046,2.056c0,1.334,1.121,2.098,3.075,2.098c2.701,0,4.272-0.696,5.896-4.653
				l8.422-18.797c1.268-2.76,2.287-3.289,4.611-3.315v-0.729h-7.691v0.729c1.418,0.017,2.805,0.223,2.805,1.416
				c0,0.348-0.069,0.677-0.204,0.981l-5.938,13.382c-0.03,0.074-0.104,0.116-0.182,0.119c-0.077,0-0.146-0.043-0.181-0.112
				l-6.643-13.833c-0.181-0.41-0.206-0.711-0.206-0.854c0-0.891,0.918-1.085,2.62-1.1v-0.729h-8.486v0.729
				c2.25,0.031,2.749,0.589,3.289,1.493l8.194,17.594c0.025,0.053,0.025,0.114,0.001,0.167l-0.933,2.026
				c-1.142,2.667-2.08,3.857-3.037,3.857c-1.106,0-1.459-0.706-1.771-1.33C279.221,41.517,278.943,40.963,277.943,40.963z"/>
		</g>
	</g>
	<g>
		<rect y="2" fill="#20231C" width="299" height="1"/>
		<path fill="#20231C" d="M301,3H0V0h301V3z M1.36,2h298.124H1.36z"/>
	</g>
	<g>
		<rect y="54" fill="#20231C" width="299" height="1"/>
		<path fill="#20231C" d="M301,55H0v-3h301V55z M1.36,54h298.124H1.36z"/>
	</g>
</g>
</svg>
